<?xml version="1.0" encoding="utf-8"?><svg viewBox="0 0 64 64" xmlns="http://www.w3.org/2000/svg" xmlns:xlink="http://www.w3.org/1999/xlink"><style>:root>svg{display:none}:root>svg:target{display:block}</style><svg fill="none" viewBox="0 0 38 38" id="fb-ico-blue" xmlns="http://www.w3.org/2000/svg"><path d="M38 19.116C38 8.56 29.493 0 19 0S0 8.559 0 19.116C0 28.657 6.948 36.566 16.031 38V24.642h-4.824v-5.526h4.824v-4.211c0-4.791 2.837-7.438 7.177-7.438 2.079 0 4.253.374 4.253.374v4.704h-2.396c-2.36 0-3.096 1.473-3.096 2.985v3.586h5.27l-.843 5.526h-4.427V38C31.052 36.566 38 28.657 38 19.116z" fill="#24A3FF"/></svg><svg fill="none" viewBox="0 0 24 24" id="fb-ico-grey" xmlns="http://www.w3.org/2000/svg"><path d="M24 12.073C24 5.405 18.627 0 12 0S0 5.405 0 12.073C0 18.1 4.388 23.094 10.125 24v-8.437H7.078v-3.49h3.047v-2.66c0-3.025 1.791-4.697 4.533-4.697 1.313 0 2.686.236 2.686.236v2.971H15.83c-1.491 0-1.956.93-1.956 1.886v2.264h3.328l-.532 3.49h-2.796V24C19.612 23.094 24 18.1 24 12.073z" fill="#b3b3ba"/></svg><svg fill="none" viewBox="0 0 24 24" id="fb-ico-red" xmlns="http://www.w3.org/2000/svg"><path d="M24 12.073C24 5.405 18.627 0 12 0S0 5.405 0 12.073C0 18.1 4.388 23.094 10.125 24v-8.437H7.078v-3.49h3.047v-2.66c0-3.025 1.791-4.697 4.533-4.697 1.313 0 2.686.236 2.686.236v2.971H15.83c-1.491 0-1.956.93-1.956 1.886v2.264h3.328l-.532 3.49h-2.796V24C19.612 23.094 24 18.1 24 12.073z" fill="#f0145a"/></svg><svg fill="none" viewBox="0 0 24 24" id="fb-ico-white" xmlns="http://www.w3.org/2000/svg"><path d="M24 12.073C24 5.405 18.627 0 12 0S0 5.405 0 12.073C0 18.1 4.388 23.094 10.125 24v-8.437H7.078v-3.49h3.047v-2.66c0-3.025 1.791-4.697 4.533-4.697 1.313 0 2.686.236 2.686.236v2.971H15.83c-1.491 0-1.956.93-1.956 1.886v2.264h3.328l-.532 3.49h-2.796V24C19.612 23.094 24 18.1 24 12.073z" fill="#fff"/></svg><svg fill="none" viewBox="0 0 64 64" id="ico-bag" xmlns="http://www.w3.org/2000/svg"><path fill-rule="evenodd" clip-rule="evenodd" d="M53.451 35.077v17.295c0 3.093-2.424 5.628-5.388 5.628H15.97c-2.964 0-5.388-2.535-5.388-5.628V35.077h16.666v7.51l4.769 3.134 4.768-3.134v-7.51h16.666z" fill="url(#epaint0_linear)"/><path fill-rule="evenodd" clip-rule="evenodd" d="M28.919 35.076v6.609l3.098 2.035 3.098-2.035v-6.609h-6.197z" fill="url(#epaint1_linear)"/><path fill-rule="evenodd" clip-rule="evenodd" d="M12.073 15.143H51.96c1.882 0 3.42 1.708 3.42 3.795v10.253c0 2.088-1.538 3.796-3.42 3.796H12.073c-1.882 0-3.42-1.708-3.42-3.796V18.938c0-2.087 1.538-3.795 3.42-3.795z" fill="url(#epaint2_linear)"/><path fill-rule="evenodd" clip-rule="evenodd" d="M23.712 5.954h16.61a2.814 2.814 0 012.805 2.806v4.378H39.57V10.55c0-.698-.57-1.27-1.268-1.27H25.731c-.697 0-1.268.572-1.268 1.27v2.587h-3.557V8.76a2.814 2.814 0 012.806-2.806z" fill="url(#epaint3_linear)"/><defs><linearGradient id="epaint0_linear" x1="32.017" y1="35.077" x2="32.017" y2="58" gradientUnits="userSpaceOnUse"><stop stop-color="#EF8080"/><stop offset="1" stop-color="#F0145A"/></linearGradient><linearGradient id="epaint1_linear" x1="32.017" y1="35.076" x2="32.017" y2="43.721" gradientUnits="userSpaceOnUse"><stop stop-color="#EF8080"/><stop offset="1" stop-color="#F0145A"/></linearGradient><linearGradient id="epaint2_linear" x1="32.017" y1="15.143" x2="32.017" y2="32.987" gradientUnits="userSpaceOnUse"><stop stop-color="#EF8080"/><stop offset="1" stop-color="#F0145A"/></linearGradient><linearGradient id="epaint3_linear" x1="32.017" y1="5.954" x2="32.017" y2="13.138" gradientUnits="userSpaceOnUse"><stop stop-color="#EF8080"/><stop offset="1" stop-color="#F0145A"/></linearGradient></defs></svg><svg fill="none" viewBox="0 0 64 64" id="ico-hand-together" xmlns="http://www.w3.org/2000/svg"><path d="M42.006 56h-19v6h19v-6z" fill="#000"/><path d="M42.006 56h-19v6h19v-6z" fill="url(#fpaint0_linear)"/><path d="M15.173 2.452L1.738 15.887l3.535 3.536L18.708 5.988l-3.535-3.536z" fill="#000"/><path d="M15.173 2.452L1.738 15.887l3.535 3.536L18.708 5.988l-3.535-3.536z" fill="url(#fpaint1_linear)"/><path d="M49.113 2.322l-3.536 3.535 13.435 13.435 3.536-3.535L49.113 2.322z" fill="#000"/><path d="M49.113 2.322l-3.536 3.535 13.435 13.435 3.536-3.535L49.113 2.322z" fill="url(#fpaint2_linear)"/><path d="M44.556 9.707l-2.69-.114a5.058 5.058 0 00-4.284 1.431l-5.505 5.505-5.753-5.754a3.839 3.839 0 00-3.858-.909 3.619 3.619 0 01-3.61-.903L18 8.109 7.395 18.716l1.728 1.728-.115 2.69a5.058 5.058 0 001.432 4.284l9.612 9.613a4.985 4.985 0 011.691-3.26l-2.995-2.994.707-.707 3.129 3.128a4.95 4.95 0 011.422-.54v-3.695l-1.722-1.722.707-.707 1.015 1.015V22.2a3.61 3.61 0 013.142-3.625c.331-.032.665-.017.991.045l-1.23-1.23.708-.707 1.796 1.797a3.542 3.542 0 013.403-1.909 3.6 3.6 0 013.175 3.332 3.558 3.558 0 011.825-.332 3.62 3.62 0 013.19 3.663v3.424a5.004 5.004 0 013.816 3.625l2.788-2.788.708.707-3.316 3.315c0 .014.004.027.004.04v3.32a3.962 3.962 0 002.379-1.128l6.84-6.84a3.84 3.84 0 00.909-3.858 3.617 3.617 0 01.903-3.61l.854-.855L46.284 7.98l-1.728 1.728z" fill="#000"/><path d="M44.556 9.707l-2.69-.114a5.058 5.058 0 00-4.284 1.431l-5.505 5.505-5.753-5.754a3.839 3.839 0 00-3.858-.909 3.619 3.619 0 01-3.61-.903L18 8.109 7.395 18.716l1.728 1.728-.115 2.69a5.058 5.058 0 001.432 4.284l9.612 9.613a4.985 4.985 0 011.691-3.26l-2.995-2.994.707-.707 3.129 3.128a4.95 4.95 0 011.422-.54v-3.695l-1.722-1.722.707-.707 1.015 1.015V22.2a3.61 3.61 0 013.142-3.625c.331-.032.665-.017.991.045l-1.23-1.23.708-.707 1.796 1.797a3.542 3.542 0 013.403-1.909 3.6 3.6 0 013.175 3.332 3.558 3.558 0 011.825-.332 3.62 3.62 0 013.19 3.663v3.424a5.004 5.004 0 013.816 3.625l2.788-2.788.708.707-3.316 3.315c0 .014.004.027.004.04v3.32a3.962 3.962 0 002.379-1.128l6.84-6.84a3.84 3.84 0 00.909-3.858 3.617 3.617 0 01.903-3.61l.854-.855L46.284 7.98l-1.728 1.728z" fill="url(#fpaint3_linear)"/><path d="M29.88 21.69a2.49 2.49 0 00-2.726-2.19 2.598 2.598 0 00-2.242 2.63v11.358a4 4 0 00-4 4v9.673a3.84 3.84 0 002.085 3.37 3.62 3.62 0 011.915 3.193v1.208h15v-2.444l1.984-1.822a5.058 5.058 0 002.016-4.041V31.487a4 4 0 00-4-4v-4.323a2.621 2.621 0 00-2.276-2.667 2.492 2.492 0 00-2.682 2.099h.458V38.04h-1V22.597h.5v-2.432a2.621 2.621 0 00-2.276-2.667 2.5 2.5 0 00-2.724 2.49v1.701h.5v15.444h-1V21.689h.468zm-4.569 20.35h-1v-8h1v8zm14.101-14.242h1v10.444h-1V27.798z" fill="#000"/><path d="M29.88 21.69a2.49 2.49 0 00-2.726-2.19 2.598 2.598 0 00-2.242 2.63v11.358a4 4 0 00-4 4v9.673a3.84 3.84 0 002.085 3.37 3.62 3.62 0 011.915 3.193v1.208h15v-2.444l1.984-1.822a5.058 5.058 0 002.016-4.041V31.487a4 4 0 00-4-4v-4.323a2.621 2.621 0 00-2.276-2.667 2.492 2.492 0 00-2.682 2.099h.458V38.04h-1V22.597h.5v-2.432a2.621 2.621 0 00-2.276-2.667 2.5 2.5 0 00-2.724 2.49v1.701h.5v15.444h-1V21.689h.468zm-4.569 20.35h-1v-8h1v8zm14.101-14.242h1v10.444h-1V27.798z" fill="url(#fpaint4_linear)"/><defs><linearGradient id="fpaint0_linear" x1="32.506" y1="56" x2="32.506" y2="62" gradientUnits="userSpaceOnUse"><stop stop-color="#EF8080"/><stop offset="1" stop-color="#F0145A"/></linearGradient><linearGradient id="fpaint1_linear" x1="8.455" y1="9.17" x2="11.991" y2="12.705" gradientUnits="userSpaceOnUse"><stop stop-color="#EF8080"/><stop offset="1" stop-color="#F0145A"/></linearGradient><linearGradient id="fpaint2_linear" x1="47.345" y1="4.09" x2="60.78" y2="17.525" gradientUnits="userSpaceOnUse"><stop stop-color="#EF8080"/><stop offset="1" stop-color="#F0145A"/></linearGradient><linearGradient id="fpaint3_linear" x1="32.143" y1="7.979" x2="32.143" y2="37.031" gradientUnits="userSpaceOnUse"><stop stop-color="#EF8080"/><stop offset="1" stop-color="#F0145A"/></linearGradient><linearGradient id="fpaint4_linear" x1="32.412" y1="17.488" x2="32.412" y2="54.931" gradientUnits="userSpaceOnUse"><stop stop-color="#EF8080"/><stop offset="1" stop-color="#F0145A"/></linearGradient></defs></svg><svg fill="none" viewBox="0 0 48 48" id="ico-lawyer" xmlns="http://www.w3.org/2000/svg"><path d="M32.253 12.46a1.872 1.872 0 002.65 0l2.608-2.608a1.878 1.878 0 000-2.651L30.928.62a1.871 1.871 0 00-2.648 0l-2.61 2.608a1.875 1.875 0 000 2.648l6.583 6.584z" fill="url(#gpaint0_linear)"/><path d="M16.667 28.338a1.876 1.876 0 002.648 0l2.609-2.61a1.872 1.872 0 000-2.649l-6.583-6.583a1.874 1.874 0 00-2.65 0l-2.607 2.608a1.875 1.875 0 000 2.65l6.583 6.584z" fill="url(#gpaint1_linear)"/><path d="M46.549 28.964l-2.647-2.65a1.875 1.875 0 00-2.648 0l-1.161 1.16-11.205-11.207 2.427-2.428-6.733-6.731-2.428 2.428-3.092 3.09L16.688 15l6.732 6.733 2.377-2.373L37 30.565l-1.048 1.049a1.87 1.87 0 000 2.648l2.647 2.648a1.87 1.87 0 002.65 0l5.299-5.297a1.871 1.871 0 00.001-2.649z" fill="url(#gpaint2_linear)"/><path d="M26.978 37.013a2.173 2.173 0 00-2.173-2.173H7.837c-1.2 0-2.173.974-2.173 2.173v3.527H.9v7.389h30.558V40.54h-4.481v-3.527z" fill="url(#gpaint3_linear)"/><defs><linearGradient id="gpaint0_linear" x1="31.591" y1=".071" x2="31.591" y2="13.01" gradientUnits="userSpaceOnUse"><stop stop-color="#EF8080"/><stop offset="1" stop-color="#F0145A"/></linearGradient><linearGradient id="gpaint1_linear" x1="16.004" y1="15.948" x2="16.004" y2="28.885" gradientUnits="userSpaceOnUse"><stop stop-color="#EF8080"/><stop offset="1" stop-color="#F0145A"/></linearGradient><linearGradient id="gpaint2_linear" x1="31.893" y1="7.108" x2="31.893" y2="37.461" gradientUnits="userSpaceOnUse"><stop stop-color="#EF8080"/><stop offset="1" stop-color="#F0145A"/></linearGradient><linearGradient id="gpaint3_linear" x1="16.18" y1="34.84" x2="16.18" y2="47.929" gradientUnits="userSpaceOnUse"><stop stop-color="#EF8080"/><stop offset="1" stop-color="#F0145A"/></linearGradient></defs></svg><svg fill="none" viewBox="0 0 24 24" id="ico-pbl-fb" xmlns="http://www.w3.org/2000/svg"><path d="M22.675 0H1.325C.593 0 0 .593 0 1.325v21.35C0 23.407.593 24 1.325 24h11.494v-9.294H9.69v-3.621h3.129V8.41c0-3.099 1.893-4.784 4.659-4.784 1.324 0 2.463.095 2.794.14v3.24h-1.92c-1.5 0-1.792.72-1.792 1.77v2.31h3.585l-.465 3.63h-3.12V24h6.116c.732 0 1.324-.593 1.324-1.325V1.325C24 .593 23.407 0 22.675 0z" fill="#435695"/></svg><svg fill="none" viewBox="0 0 24 24" id="ico-pbl-in" xmlns="http://www.w3.org/2000/svg"><path d="M3.6 9h3.6v11.4H3.6V9zm1.8-5.7c1.2 0 2.1.9 2.1 2.1-.15 1.05-1.05 2.1-2.1 2.1-1.2 0-2.1-1.05-2.1-2.1 0-1.2.9-2.1 2.1-2.1zM9.3 9h3.45v1.5c.75-1.2 2.1-1.8 3.45-1.8 3.6 0 4.2 2.4 4.2 5.4v6.3h-3.6v-5.55c0-1.35 0-3-1.8-3s-2.1 1.5-2.1 3v5.7H9.3V9zm10.2-9h-15C1.5 0 0 1.5 0 4.5v15c0 3 1.5 4.5 4.5 4.5h15c3 0 4.5-1.5 4.5-4.5v-15c0-3-1.5-4.5-4.5-4.5z" fill="#1178B3"/></svg><svg fill="none" viewBox="0 0 24 22" id="ico-pbl-tg" xmlns="http://www.w3.org/2000/svg"><path d="M9 16.941l-1.5-4.5 16.5-12L.933 9.312s-1.008.345-.929.983c.08.637.903.928.903.928l5.363 1.805 2.43 7.73 4.113-3.616-.01-.007 5.41 4.149c1.46.637 1.99-.69 1.99-.69L24 .44l-15 16.5z" fill="#3CACDC"/></svg><svg fill="none" viewBox="0 0 42 42" id="ico-scroll-down" xmlns="http://www.w3.org/2000/svg"><circle opacity=".5" cx="21" cy="21" r="20.5" stroke="#fff"/><path d="M12 18l9 9 9-9" stroke="#fff" stroke-width="2"/></svg><svg fill="none" viewBox="0 0 64 64" id="ico-shield" xmlns="http://www.w3.org/2000/svg"><path d="M41.232 37.697c2.352 0 4.678.588 6.726 1.7.372.201.713.44 1.061.67 3.362-6.58 5.136-13.539 5.136-20.328 0-.381 0-.775-.013-1.169a1.244 1.244 0 00-.972-1.157c-7.434-1.624-14.166-5.649-19.459-11.63l-.787-.899A1.207 1.207 0 0032 4.466c-.382-.05-.677.135-.911.393l-1.206 1.33c-5.022 5.526-11.348 9.341-18.29 11.04l-.8.197a1.21 1.21 0 00-.935 1.156c-.443 17.305 9.772 29.748 14.179 34.302a41.682 41.682 0 003.787 3.448 14.226 14.226 0 01-.747-4.482c0-7.804 6.349-14.153 14.154-14.153z" fill="url(#lpaint0_linear)"/><path d="M46.782 41.56a11.654 11.654 0 00-5.55-1.402c-6.45 0-11.693 5.243-11.693 11.692 0 2.179.59 4.308 1.723 6.13 2.154 3.483 5.871 5.563 9.97 5.563 6.436 0 11.692-5.244 11.692-11.693 0-4.308-2.351-8.246-6.142-10.29zm.438 8.733l-9.145 7.117-3.122-4.883a1.23 1.23 0 112.073-1.326l1.668 2.608 7.014-5.458a1.23 1.23 0 111.512 1.942z" fill="url(#lpaint1_linear)"/><defs><linearGradient id="lpaint0_linear" x1="32" y1="4.458" x2="32" y2="56.332" gradientUnits="userSpaceOnUse"><stop stop-color="#EF8080"/><stop offset="1" stop-color="#F0145A"/></linearGradient><linearGradient id="lpaint1_linear" x1="41.231" y1="40.158" x2="41.231" y2="63.542" gradientUnits="userSpaceOnUse"><stop stop-color="#EF8080"/><stop offset="1" stop-color="#F0145A"/></linearGradient></defs></svg><svg fill="none" viewBox="0 0 64 64" id="ico-shopping" xmlns="http://www.w3.org/2000/svg"><path d="M23.734 28.125a2 2 0 002-2v-7.8A6.332 6.332 0 0132.058 12a6.333 6.333 0 016.325 6.325v7.8a2 2 0 004 0v-7.8C42.383 12.632 37.752 8 32.058 8c-5.692 0-10.324 4.632-10.324 10.325v7.8a2 2 0 002 2z" fill="url(#mpaint0_linear)"/><path d="M55 23.631H44.384v2.494c0 2.206-1.794 4-4 4s-4-1.794-4-4v-2.494h-8.649v2.494c0 2.206-1.794 4-4 4s-4-1.794-4-4v-2.494H9c-.552 0-.893.435-.762.971l6.998 28.497C15.658 54.701 17.344 56 19 56h26c1.658 0 3.342-1.299 3.766-2.901l6.996-28.497c.131-.537-.209-.971-.762-.971z" fill="url(#mpaint1_linear)"/><path d="M28.6 34.4a1.4 1.4 0 112.8 0v6.95V40a1.4 1.4 0 112.8 0v1.676c.013-.762.635-2.376 1.4-2.376a1.4 1.4 0 011.4 1.4s.041 1.041.133 1.103C37.357 41.33 37.84 40 38.4 40a1.4 1.4 0 011.4 1.4v7a2.8 2.8 0 01-2.8 2.8h-4.68a5.6 5.6 0 01-3.96-1.64l-2.21-2.21L23 45.94c.005-1.337 1.053-1.74 2.1-1.74.902 0 1.714.14 3.5 1.05V34.4z" fill="#fff"/><defs><linearGradient id="mpaint0_linear" x1="32.058" y1="8" x2="32.058" y2="28.125" gradientUnits="userSpaceOnUse"><stop stop-color="#EF8080"/><stop offset="1" stop-color="#F0145A"/></linearGradient><linearGradient id="mpaint1_linear" x1="32" y1="23.631" x2="32" y2="56" gradientUnits="userSpaceOnUse"><stop stop-color="#EF8080"/><stop offset="1" stop-color="#F0145A"/></linearGradient></defs></svg><svg fill="none" viewBox="0 0 64 64" id="ico-structure" xmlns="http://www.w3.org/2000/svg"><path d="M60.526 37.727a5.595 5.595 0 00-2.15-.429 5.61 5.61 0 00-4.186 1.863l-1.22-.505-3.48-1.441A18.19 18.19 0 0050.25 32c0-1.812-.267-3.562-.76-5.215l3.48-1.442 1.22-.505a5.61 5.61 0 004.185 1.863 5.632 5.632 0 005.195-7.779 5.61 5.61 0 00-5.198-3.473 5.634 5.634 0 00-5.615 5.923l-1.227.509-3.479 1.44a18.381 18.381 0 00-7.373-7.373l1.441-3.479.508-1.225a5.61 5.61 0 005.494-3.465A5.632 5.632 0 0042.926 0a5.61 5.61 0 00-5.198 3.473 5.634 5.634 0 001.435 6.334l-.506 1.223-1.442 3.48A18.196 18.196 0 0032 13.75c-1.811 0-3.562.267-5.215.76l-1.441-3.48-.507-1.223a5.634 5.634 0 001.436-6.334A5.61 5.61 0 0021.074 0a5.632 5.632 0 00-5.195 7.779 5.61 5.61 0 005.494 3.465l.508 1.226 1.44 3.479a18.38 18.38 0 00-7.372 7.373l-3.48-1.441-1.226-.508a5.634 5.634 0 00-3.464-5.494 5.595 5.595 0 00-2.151-.43 5.61 5.61 0 00-5.199 3.474 5.632 5.632 0 005.196 7.779 5.61 5.61 0 004.185-1.864l1.22.506 3.48 1.441A18.19 18.19 0 0013.75 32c0 1.812.267 3.562.76 5.215l-3.48 1.441-1.22.505a5.61 5.61 0 00-4.185-1.863A5.632 5.632 0 00.43 45.077a5.61 5.61 0 005.198 3.473c.74 0 1.463-.144 2.15-.429a5.634 5.634 0 003.465-5.494l1.227-.508 3.479-1.44a18.38 18.38 0 007.373 7.372l-1.441 3.48-.508 1.225a5.61 5.61 0 00-5.494 3.465A5.632 5.632 0 0021.074 64a5.61 5.61 0 005.198-3.474 5.634 5.634 0 00-1.435-6.333l.506-1.223 1.442-3.48c1.653.493 3.403.76 5.215.76 1.811 0 3.562-.267 5.215-.76l1.441 3.48.507 1.223a5.634 5.634 0 00-1.436 6.334A5.61 5.61 0 0042.926 64a5.632 5.632 0 005.195-7.779 5.61 5.61 0 00-5.494-3.465l-.508-1.226-1.441-3.479a18.38 18.38 0 007.373-7.373l3.479 1.441 1.227.508a5.634 5.634 0 003.464 5.494c.687.285 1.411.43 2.151.43a5.61 5.61 0 005.198-3.474 5.631 5.631 0 00-3.044-7.35zM32 46.5c-7.995 0-14.5-6.505-14.5-14.5S24.005 17.5 32 17.5 46.5 24.005 46.5 32 39.995 46.5 32 46.5z" fill="#000"/><path d="M60.526 37.727a5.595 5.595 0 00-2.15-.429 5.61 5.61 0 00-4.186 1.863l-1.22-.505-3.48-1.441A18.19 18.19 0 0050.25 32c0-1.812-.267-3.562-.76-5.215l3.48-1.442 1.22-.505a5.61 5.61 0 004.185 1.863 5.632 5.632 0 005.195-7.779 5.61 5.61 0 00-5.198-3.473 5.634 5.634 0 00-5.615 5.923l-1.227.509-3.479 1.44a18.381 18.381 0 00-7.373-7.373l1.441-3.479.508-1.225a5.61 5.61 0 005.494-3.465A5.632 5.632 0 0042.926 0a5.61 5.61 0 00-5.198 3.473 5.634 5.634 0 001.435 6.334l-.506 1.223-1.442 3.48A18.196 18.196 0 0032 13.75c-1.811 0-3.562.267-5.215.76l-1.441-3.48-.507-1.223a5.634 5.634 0 001.436-6.334A5.61 5.61 0 0021.074 0a5.632 5.632 0 00-5.195 7.779 5.61 5.61 0 005.494 3.465l.508 1.226 1.44 3.479a18.38 18.38 0 00-7.372 7.373l-3.48-1.441-1.226-.508a5.634 5.634 0 00-3.464-5.494 5.595 5.595 0 00-2.151-.43 5.61 5.61 0 00-5.199 3.474 5.632 5.632 0 005.196 7.779 5.61 5.61 0 004.185-1.864l1.22.506 3.48 1.441A18.19 18.19 0 0013.75 32c0 1.812.267 3.562.76 5.215l-3.48 1.441-1.22.505a5.61 5.61 0 00-4.185-1.863A5.632 5.632 0 00.43 45.077a5.61 5.61 0 005.198 3.473c.74 0 1.463-.144 2.15-.429a5.634 5.634 0 003.465-5.494l1.227-.508 3.479-1.44a18.38 18.38 0 007.373 7.372l-1.441 3.48-.508 1.225a5.61 5.61 0 00-5.494 3.465A5.632 5.632 0 0021.074 64a5.61 5.61 0 005.198-3.474 5.634 5.634 0 00-1.435-6.333l.506-1.223 1.442-3.48c1.653.493 3.403.76 5.215.76 1.811 0 3.562-.267 5.215-.76l1.441 3.48.507 1.223a5.634 5.634 0 00-1.436 6.334A5.61 5.61 0 0042.926 64a5.632 5.632 0 005.195-7.779 5.61 5.61 0 00-5.494-3.465l-.508-1.226-1.441-3.479a18.38 18.38 0 007.373-7.373l3.479 1.441 1.227.508a5.634 5.634 0 003.464 5.494c.687.285 1.411.43 2.151.43a5.61 5.61 0 005.198-3.474 5.631 5.631 0 00-3.044-7.35zM32 46.5c-7.995 0-14.5-6.505-14.5-14.5S24.005 17.5 32 17.5 46.5 24.005 46.5 32 39.995 46.5 32 46.5z" fill="url(#npaint0_linear)"/><defs><linearGradient id="npaint0_linear" x1="32" y1="0" x2="32" y2="64" gradientUnits="userSpaceOnUse"><stop stop-color="#EF8080"/><stop offset="1" stop-color="#F0145A"/></linearGradient></defs></svg><svg fill="none" viewBox="0 0 22 22" id="ico-structure-inner" xmlns="http://www.w3.org/2000/svg"><path d="M11 .25C5.072.25.25 5.072.25 11c0 5.927 4.822 10.75 10.75 10.75 5.927 0 10.75-4.823 10.75-10.75C21.75 5.072 16.927.25 11 .25zm1.875 14.875h-3.75v-8.25h3.75v8.25z" fill="#000"/><path d="M11 .25C5.072.25.25 5.072.25 11c0 5.927 4.822 10.75 10.75 10.75 5.927 0 10.75-4.823 10.75-10.75C21.75 5.072 16.927.25 11 .25zm1.875 14.875h-3.75v-8.25h3.75v8.25z" fill="url(#opaint0_linear)"/><defs><linearGradient id="opaint0_linear" x1="11" y1=".25" x2="11" y2="21.75" gradientUnits="userSpaceOnUse"><stop stop-color="#EF8080"/><stop offset="1" stop-color="#F0145A"/></linearGradient></defs></svg><svg fill="none" viewBox="0 0 8 12" id="right-arrow-dark" xmlns="http://www.w3.org/2000/svg"><path d="M1.5 1.5L6 6l-4.5 4.5" stroke="#b3b3ba" stroke-width="2"/></svg><svg fill="none" viewBox="0 0 8 12" id="right-arrow-hover-red" xmlns="http://www.w3.org/2000/svg"><path d="M1.5 1.5L6 6l-4.5 4.5" stroke="#f0145a" stroke-width="2"/></svg><svg fill="none" viewBox="0 0 8 12" id="right-arrow-light" xmlns="http://www.w3.org/2000/svg"><path d="M1.5 1.5L6 6l-4.5 4.5" stroke="#24A3FF" stroke-width="2"/></svg></svg>